<svg t="1658909702123" class="icon" viewBox="0 0 1024 1024" version="1.1" xmlns="http://www.w3.org/2000/svg" p-id="9981" width="200" height="200"><path d="M684.992 490.496 1024 143.36l-113.344-112.704L565.504 377.664l-58.24 176.64L684.992 490.496zM173.824 236.544l278.72 0 0 39.36L173.824 275.904 173.824 236.544zM177.088 807.104l413.184 0 0 39.36L177.088 846.464 177.088 807.104zM0 20.096l0 983.744 806.72 0L806.72 435.072l-86.336 88.832L536.384 590.656l53.888 0 0 39.36L177.088 630.016 177.088 590.656 447.36 590.656l45.568-137.728L177.088 452.928 177.088 413.632l328.896 0L529.28 343.488l277.44-277.44L806.72 20.096 0 20.096z" p-id="9982"></path></svg>
